<?xml version="1.0" encoding="iso-8859-1"?>
<!-- Uploaded to: SVG Repo, www.svgrepo.com, Generator: SVG Repo Mixer Tools -->
<svg version="1.1" id="Layer_1" xmlns="http://www.w3.org/2000/svg" xmlns:xlink="http://www.w3.org/1999/xlink" 
	 viewBox="0 0 512 512" xml:space="preserve">
<path style="fill:#DBBC82;" d="M502.865,188.049C473.095,79.648,373.856,0,256,0C114.615,0,0,114.615,0,256
	c0,117.856,79.648,217.094,188.049,246.865L502.865,188.049z"/>
<path style="fill:#C9A06C;" d="M512,256c0-23.529-3.191-46.309-9.135-67.951l-89.458-89.458L98.592,413.408l89.458,89.458
	c21.641,5.944,44.422,9.135,67.951,9.135C397.385,512,512,397.384,512,256z"/>
<path style="fill:#FFF3AD;" d="M256,33.391L144.696,256L256,478.609c122.943,0,222.609-99.665,222.609-222.609
	S378.943,33.391,256,33.391z"/>
<path style="fill:#FFFFFF;" d="M33.391,256c0,122.943,99.665,222.609,222.609,222.609V33.391
	C133.057,33.391,33.391,133.057,33.391,256z"/>
<path style="fill:#FFD23E;" d="M256,66.783L161.391,256L256,445.217c104.501,0,189.217-84.715,189.217-189.217
	S360.501,66.783,256,66.783z"/>
<path style="fill:#FFE376;" d="M66.783,256c0,104.503,84.716,189.217,189.217,189.217V66.783
	C151.499,66.783,66.783,151.497,66.783,256z"/>
<path style="fill:#934D2B;" d="M350.758,133.947c-22.453-27.41-56.562-44.904-94.758-44.904l-33.391,150.071L256,356.174h133.565
	V178.087C389.565,155.537,372.57,136.775,350.758,133.947z"/>
<path style="fill:#A56840;" d="M161.242,133.947c-21.812,2.828-38.807,21.59-38.807,44.14v178.087H256V89.043
	C217.804,89.043,183.696,106.537,161.242,133.947z"/>
<path style="fill:#C9A06C;" d="M347.895,156.023l-8.76-1.136l-5.597-6.834c-19.132-23.354-47.393-36.748-77.538-36.748
	l-33.391,128.424L256,333.913h111.304V256l-11.13-11.13l11.13-11.13v-55.652C367.304,166.943,358.96,157.458,347.895,156.023z"/>
<rect x="244.87" y="133.565" style="fill:#B78456;" width="33.391" height="22.261"/>
<path style="fill:#DBBC82;" d="M178.463,148.054l-5.598,6.834l-8.76,1.136c-11.066,1.434-19.41,10.919-19.41,22.063v33.391
	l11.13,11.13l-11.13,11.13v100.174h33.391l11.13-11.13l11.13,11.13H256V111.304C225.855,111.304,197.594,124.699,178.463,148.054z"
	/>
<path style="fill:#FFE376;" d="M256,200.348l-25.043,50.087L256,300.522c27.662,0,50.087-22.424,50.087-50.087
	S283.662,200.348,256,200.348z"/>
<path style="fill:#FFF3AD;" d="M205.913,250.435c0,27.662,22.424,50.087,50.087,50.087V200.348
	C228.338,200.348,205.913,222.772,205.913,250.435z"/>
<path style="fill:#FFD23E;" d="M256,222.609l-13.913,27.826L256,278.261c15.368,0,27.826-12.458,27.826-27.826
	S271.368,222.609,256,222.609z"/>
<path style="fill:#FFE376;" d="M228.174,250.435c0,15.368,12.458,27.826,27.826,27.826v-55.652
	C240.632,222.609,228.174,235.067,228.174,250.435z"/>
<path style="fill:#FFF3AD;" d="M256,322.783l-25.043,50.087L256,422.957c27.662,0,50.087-22.424,50.087-50.087
	C306.087,345.207,283.662,322.783,256,322.783z"/>
<path style="fill:#FFFFFF;" d="M205.913,372.87c0,27.662,22.424,50.087,50.087,50.087V322.783
	C228.338,322.783,205.913,345.207,205.913,372.87z"/>
<path style="fill:#FFE376;" d="M256,345.043l-13.913,27.826L256,400.696c15.368,0,27.826-12.458,27.826-27.826
	S271.368,345.043,256,345.043z"/>
<path style="fill:#FFF3AD;" d="M228.174,372.87c0,15.368,12.458,27.826,27.826,27.826v-55.652
	C240.632,345.043,228.174,357.502,228.174,372.87z"/>
<rect x="322.783" y="256" style="fill:#A56840;" width="22.261" height="22.261"/>
<rect x="345.043" y="233.739" style="fill:#B78456;" width="22.261" height="22.261"/>
<g>
	<rect x="144.696" y="211.478" style="fill:#C9A06C;" width="22.261" height="22.261"/>
	<rect x="178.087" y="311.652" style="fill:#C9A06C;" width="22.261" height="22.261"/>
</g>
<rect x="166.957" y="189.217" style="fill:#B78456;" width="22.261" height="22.261"/>
<rect x="322.783" y="189.217" style="fill:#A56840;" width="22.261" height="22.261"/>
</svg>