<?xml version="1.0" encoding="iso-8859-1"?>
<!-- Uploaded to: SVG Repo, www.svgrepo.com, Generator: SVG Repo Mixer Tools -->
<svg version="1.1" id="Layer_1" xmlns="http://www.w3.org/2000/svg" xmlns:xlink="http://www.w3.org/1999/xlink" 
	 viewBox="0 0 512 512" xml:space="preserve">
<path style="fill:#BEC130;" d="M502.865,188.049C473.095,79.648,373.856,0,256,0C114.615,0,0,114.615,0,256
	c0,117.856,79.648,217.094,188.049,246.865L502.865,188.049z"/>
<path style="fill:#81982D;" d="M512,256c0-23.529-3.191-46.309-9.135-67.951l-89.458-89.458L98.592,413.408l89.458,89.458
	c21.641,5.944,44.422,9.135,67.951,9.135C397.385,512,512,397.384,512,256z"/>
<path style="fill:#FFF3AD;" d="M256.427,33.391L145.123,256l111.304,222.609c122.943,0,222.609-99.665,222.609-222.609
	S379.37,33.391,256.427,33.391z"/>
<path style="fill:#FFFFFF;" d="M33.819,256c0,122.943,99.665,222.609,222.609,222.609V33.391
	C133.484,33.391,33.819,133.057,33.819,256z"/>
<path style="fill:#FFD23E;" d="M256,66.783L161.391,256L256,445.217c104.501,0,189.217-84.715,189.217-189.217
	S360.501,66.783,256,66.783z"/>
<path style="fill:#FFE376;" d="M66.783,256c0,104.503,84.716,189.217,189.217,189.217V66.783
	C151.499,66.783,66.783,151.497,66.783,256z"/>
<path style="fill:#FDA409;" d="M256,422.957l-44.522-94.609L256,233.739h144.696c12.299,0,22.261,9.962,22.261,22.261
	C422.957,348.204,348.204,422.957,256,422.957z"/>
<rect x="300.522" y="256" style="fill:#FFC207;" width="22.261" height="22.261"/>
<g>
	<rect x="278.261" y="278.261" style="fill:#FC870B;" width="22.261" height="22.261"/>
	<rect x="356.174" y="300.522" style="fill:#FC870B;" width="22.261" height="22.261"/>
</g>
<g>
	<rect x="322.783" y="345.043" style="fill:#FFC207;" width="22.261" height="22.261"/>
	<path style="fill:#FFC207;" d="M256,233.739v189.217c-92.205,0-166.957-74.752-166.957-166.957
		c0-12.299,9.962-22.261,22.261-22.261H256z"/>
</g>
<rect x="166.957" y="345.043" style="fill:#FDA409;" width="22.261" height="22.261"/>
<g>
	<rect x="211.478" y="256" style="fill:#FFD23E;" width="22.261" height="22.261"/>
	<rect x="133.565" y="289.391" style="fill:#FFD23E;" width="22.261" height="22.261"/>
</g>
<polygon style="fill:#81982D;" points="403.752,166.957 89.043,189.217 89.043,211.478 300.522,211.478 311.652,200.348 
	322.783,211.478 403.752,211.478 "/>
<polygon style="fill:#A0AD2F;" points="403.752,166.957 278.261,166.957 267.129,178.087 255.999,166.957 233.739,166.957 
	222.609,178.087 211.478,166.957 155.826,166.957 144.696,178.087 133.565,166.957 89.043,166.957 89.043,189.217 403.752,189.217 
	"/>
<path style="fill:#63842C;" d="M446.581,189.217l-69.565-11.88l11.13,45.271C411.714,222.609,437.711,207.36,446.581,189.217z"/>
<g>
	<path style="fill:#81982D;" d="M388.146,177.338l-58.435,11.88c8.87,18.143,34.867,33.391,58.435,33.391V177.338z"/>
	<path style="fill:#81982D;" d="M388.146,155.826l-11.13,33.391h69.565C437.711,171.075,411.714,155.826,388.146,155.826z"/>
</g>
<path style="fill:#A0AD2F;" d="M388.146,155.826c-23.568,0-49.565,15.249-58.435,33.391h58.435V155.826z"/>
<g>
	<rect x="133.565" y="166.957" style="fill:#BEC130;" width="22.261" height="22.261"/>
	<rect x="211.478" y="166.957" style="fill:#BEC130;" width="22.261" height="22.261"/>
	<rect x="256" y="166.957" style="fill:#BEC130;" width="22.261" height="22.261"/>
</g>
<rect x="300.522" y="189.217" style="fill:#63842C;" width="22.261" height="22.261"/>
<polygon style="fill:#81982D;" points="131.334,100.174 363.361,122.435 363.361,144.697 323.21,144.697 312.08,133.566 
	300.949,144.697 234.167,144.697 223.036,133.565 211.906,144.697 131.334,144.697 "/>
<polygon style="fill:#A0AD2F;" points="300.522,100.174 289.391,111.304 278.26,100.174 131.334,100.174 131.334,122.435 
	363.361,122.435 363.361,100.174 "/>
<path style="fill:#63842C;" d="M100.171,122.435l69.565-11.88l-11.13,45.271C135.038,155.826,109.039,140.577,100.171,122.435z"/>
<g>
	<path style="fill:#81982D;" d="M158.605,110.555l58.435,11.88c-8.87,18.143-34.867,33.391-58.435,33.391V110.555z"/>
	<path style="fill:#81982D;" d="M158.605,89.043l11.13,33.391h-69.565C109.039,104.292,135.038,89.043,158.605,89.043z"/>
</g>
<path style="fill:#A0AD2F;" d="M158.605,89.043c23.568,0,49.565,15.249,58.435,33.391h-58.435V89.043z"/>
<rect x="278.261" y="100.174" style="fill:#BEC130;" width="22.261" height="22.261"/>
<g>
	<rect x="211.901" y="122.435" style="fill:#63842C;" width="22.261" height="22.261"/>
	<rect x="300.945" y="122.435" style="fill:#63842C;" width="22.261" height="22.261"/>
</g>
</svg>